# xmcd
#
# Track frame offsets: 
#        150
#        15295
#        32272
#        46775
#        61747
#        78395
#        90325
#        103080
#        118097
#        133805
#        147092
#        162257
#
# Disc length: 2326 seconds
#
# Revision: 8
# Processed by: cddbd v1.5PL3 Copyright (c) Steve Scherf et al.
# Submitted via: ExactAudioCopy v0.95a4
#
DISCID=8809140c
DTITLE=Sammy Kershaw - Politics, Religion And Her
DYEAR=1996
DGENRE=Country
TTITLE0=Vidalia
TTITLE1=Meant To Be
TTITLE2=Fit To Be Tied Down
TTITLE3=Politics, Religion and Her
TTITLE4=Chevy Van
TTITLE5=Same Place
TTITLE6=Little Bitty Crack In Her Heart
TTITLE7=These Flowers
TTITLE8=I Saw You Today
TTITLE9=Memphis, Tennessee
TTITLE10=For Years
TTITLE11=Here She Comes
EXTD=ID3G: 2
EXTT0=
EXTT1=
EXTT2=
EXTT3=
EXTT4=
EXTT5=
EXTT6=
EXTT7=
EXTT8=
EXTT9=
EXTT10=
EXTT11=
PLAYORDER=
